<svg width="150" height="150" viewBox="0 0 150 150" fill="none" xmlns="http://www.w3.org/2000/svg">
<path fill-rule="evenodd" clip-rule="evenodd" d="M22 0C9.84973 0 0 9.84973 0 22V128C0 140.15 9.84973 150 22 150H128C140.15 150 150 140.15 150 128V22C150 9.84974 140.15 0 128 0H22ZM36 48C36 41.3726 41.3726 36 48 36H111C113.209 36 115 37.7909 115 40C115 44.5358 112.484 48.4838 108.771 50.524C108.576 50.7585 108.352 50.9741 108.098 51.165L91.0117 64H111C113.209 64 115 65.7909 115 68C115 74.6274 109.627 80 103 80H69.7125L62.5186 85.404C57.6858 89.0344 50.8758 88.3484 46.8641 83.8271C45.3806 82.155 45.6184 79.5773 47.3829 78.2049L81.0747 52H40C37.7909 52 36 50.2091 36 48ZM36 109C36 102.373 41.3726 97 48 97H111C113.209 97 115 98.7909 115 101C115 107.627 109.627 113 103 113H40C37.7909 113 36 111.209 36 109Z" fill="#A5F3FC"/>
</svg>
